<svg xmlns="http://www.w3.org/2000/svg"  viewBox="0 0 50 50" width="100px" height="100px"><path d="M 13 4 C 8.038 4 4 8.037 4 13 L 4 37 C 4 41.963 8.038 46 13 46 L 37 46 C 41.962 46 46 41.963 46 37 L 46 13 C 46 8.037 41.962 4 37 4 L 13 4 z M 35.234375 16.765625 L 38.115234 16.765625 L 39.808594 33.197266 L 37.648438 33.197266 L 37.365234 29.873047 L 35.945312 29.873047 L 35.660156 33.197266 L 33.490234 33.197266 L 35.234375 16.765625 z M 19.853516 16.777344 L 22.591797 16.777344 L 24.71875 29.669922 C 24.42375 25.422922 24.268687 21.130344 24.304688 16.777344 L 26.060547 16.777344 L 26.060547 33.195312 L 23.513672 33.195312 L 21.46875 20.542969 C 21.72875 24.721969 21.632906 28.967312 21.628906 33.195312 L 19.853516 33.195312 L 19.853516 16.777344 z M 27.427734 16.777344 L 30.326172 16.777344 C 32.039172 16.773344 32.892578 18.038203 32.892578 19.408203 L 32.892578 22.923828 C 32.892578 23.965828 32.540219 25.111328 31.949219 25.111328 C 32.895219 25.747328 32.892578 26.830781 32.892578 27.175781 L 32.892578 30.453125 C 32.892578 32.731125 31.122563 33.185547 30.601562 33.185547 L 27.427734 33.185547 L 27.427734 16.777344 z M 11.949219 16.785156 L 14.287109 16.785156 C 13.842109 16.957156 13.780672 17.150578 13.763672 17.767578 C 13.688672 17.775578 13.532938 17.702125 13.585938 18.078125 C 13.585938 18.078125 13.614844 18.328109 13.714844 18.287109 C 13.636844 18.832109 13.697938 18.970766 13.335938 19.009766 C 13.257938 19.017766 13.162875 19.022344 13.046875 19.027344 L 13.011719 19.078125 C 12.516719 19.125125 12.270172 19.094625 11.951172 19.515625 C 11.829172 19.676625 11.697156 19.905469 11.535156 20.230469 C 11.535156 20.230469 11.38875 20.594141 11.34375 20.744141 C 11.20175 21.042141 10.854953 21.702 10.751953 22.125 C 10.718953 22.27 10.653141 22.314437 10.744141 22.523438 C 10.880141 22.824437 10.655688 22.900906 11.429688 22.878906 L 11.429688 23.056641 C 11.429688 23.056641 11.223688 23.235797 11.179688 23.341797 C 11.137688 23.450797 11.018438 23.981375 11.023438 24.234375 C 11.037437 24.894375 11.575375 25.444562 11.734375 26.101562 L 12.09375 26.150391 C 12.28875 26.598391 13.139891 27.807953 13.337891 28.001953 L 13.345703 28.009766 C 13.389703 28.123766 13.608328 28.26425 13.736328 28.40625 C 13.814328 28.48125 14.173344 28.872187 14.652344 29.242188 C 14.828344 29.378187 15.017844 29.512953 15.214844 29.626953 C 15.208844 29.623953 15.331578 29.868359 15.392578 30.068359 C 15.147578 30.266359 15.624531 30.627562 15.769531 31.226562 C 15.777531 31.307562 15.629609 31.387937 15.849609 31.585938 C 15.835609 32.489938 15.561437 32.962891 16.023438 33.212891 L 11.949219 33.212891 L 11.949219 33.214844 C 11.209219 33.197844 10.611328 32.590656 10.611328 31.847656 L 10.611328 18.154297 C 10.611328 17.405297 11.208219 16.802156 11.949219 16.785156 z M 14.716797 16.785156 L 16.021484 16.785156 C 16.775484 16.785156 17.386719 17.397297 17.386719 18.154297 L 17.386719 24.769531 C 17.350719 24.669531 17.298516 24.578328 17.228516 24.486328 C 17.228516 24.302328 17.030516 24.305281 16.978516 24.238281 C 16.931516 24.177281 17.028453 24.142453 16.689453 24.064453 C 16.625453 24.028453 16.574219 23.527344 16.574219 23.527344 C 16.524219 23.207344 16.408281 22.984578 16.238281 22.642578 C 16.155281 22.469578 16.112578 21.928391 16.017578 21.650391 C 16.067578 20.378391 15.664937 20.008781 15.335938 19.800781 C 15.210938 19.719781 15.146438 19.661844 15.023438 19.589844 L 15.017578 19.53125 C 14.920578 19.43925 14.729312 19.344484 14.570312 19.271484 C 14.524312 19.219484 14.545172 19.111266 14.576172 19.072266 C 14.684172 19.058266 14.826219 18.819406 14.949219 18.566406 C 15.041219 18.572406 15.072516 18.479688 15.103516 18.429688 C 15.200516 18.270688 15.305922 18.131109 15.169922 18.037109 C 15.478922 17.478109 15.280281 17.103844 15.113281 17.089844 C 15.043281 16.950844 14.925797 16.860156 14.716797 16.785156 z M 29.384766 18.875 L 29.384766 24.261719 L 30.277344 24.261719 C 30.721344 24.261719 30.935547 24.212594 30.935547 23.558594 L 30.935547 19.736328 C 30.935547 19.362328 30.788656 18.875 30.347656 18.875 L 29.384766 18.875 z M 15.113281 21.345703 C 15.155281 21.573703 15.355406 22.734969 15.441406 22.917969 C 15.527406 23.103969 15.826891 23.671391 15.962891 24.025391 C 15.431891 24.156391 15.033203 24.637984 15.033203 25.208984 C 15.033203 25.881984 15.577953 26.431641 16.251953 26.431641 C 16.766953 26.431641 17.212625 26.111156 17.390625 25.660156 L 17.386719 31.847656 C 17.386719 32.532656 16.895281 33.096266 16.238281 33.197266 L 16.224609 33.199219 C 16.822609 32.834219 16.451891 32.144281 16.337891 31.738281 L 16.359375 31.669922 C 16.390375 31.613922 16.326172 31.482422 16.326172 31.482422 C 16.251172 31.421422 16.234313 31.081781 16.195312 30.925781 C 16.131312 30.672781 16.310547 30.230078 16.310547 30.080078 C 16.310547 29.930078 16.196234 29.724891 15.990234 29.462891 C 15.940234 29.404891 15.79025 28.120922 15.65625 27.794922 C 15.47025 27.346922 15.414406 27.419813 15.191406 26.882812 C 15.021406 26.506812 15.155484 25.953969 14.771484 24.667969 L 14.857422 24.585938 C 14.857422 24.585938 14.551172 23.466156 14.451172 23.160156 C 14.354172 22.854156 14.173828 22.835938 14.173828 22.835938 L 14.183594 22.675781 C 14.197594 22.628781 14.556891 21.697016 14.587891 21.666016 C 14.590891 21.646016 15.105281 21.292703 15.113281 21.345703 z M 36.654297 21.404297 L 36.107422 27.947266 L 37.203125 27.947266 L 36.654297 21.404297 z M 29.384766 26.052734 L 29.384766 31.121094 L 30.277344 31.111328 C 30.714344 31.111328 30.935547 30.772125 30.935547 30.328125 L 30.935547 26.916016 C 30.935547 26.540016 30.788656 26.052734 30.347656 26.052734 L 29.384766 26.052734 z"/></svg>